# xmcd
#
# Track frame offsets: 
#        150
#        17263
#        36625
#        62096
#        75594
#        98174
#        134528
#        150185
#        168606
#        187093
#        207658
#        227444
#
# Disc length: 3481 seconds
#
# Revision: 4
# Processed by: cddbd v1.5.2PL0 Copyright (c) Steve Scherf et al.
# Submitted via: ExactAudioCopyFreeDBPlugin 1.0
#
DISCID=9a0d970c
DTITLE=Kenny Wayne Shepherd - Goin' Home
DYEAR=2014
DGENRE=Blues
TTITLE0=Palace of the King
TTITLE1=Everything Gonna Be Alright
TTITLE2=I Love the Life I Live
TTITLE3=House Is Rockin'
TTITLE4=Breaking up Somebody's Home
TTITLE5=You Done Lost Your Good Thing Now
TTITLE6=You Can't Judge a Book by the Cover
TTITLE7=Boogie Man
TTITLE8=Looking Back
TTITLE9=Cut You Loose
TTITLE10=Born Under a Bad Sign
TTITLE11=Still a Fool
EXTD=YEAR: 2014
EXTT0=
EXTT1=
EXTT2=
EXTT3=
EXTT4=
EXTT5=
EXTT6=
EXTT7=
EXTT8=
EXTT9=
EXTT10=
EXTT11=
PLAYORDER=
